<?xml version="1.0" standalone="no"?>
<!DOCTYPE svg PUBLIC "-//W3C//DTD SVG 20010904//EN"
 "http://www.w3.org/TR/2001/REC-SVG-20010904/DTD/svg10.dtd">
<svg version="1.0" xmlns="http://www.w3.org/2000/svg"
 width="1050.000000pt" height="600.000000pt" viewBox="0 0 1050.000000 600.000000"
 preserveAspectRatio="xMidYMid meet">

<g transform="translate(0.000000,600.000000) scale(0.100000,-0.100000)"
fill="#000000" stroke="none">
<path d="M0 3000 l0 -3000 5250 0 5250 0 0 3000 0 3000 -5250 0 -5250 0 0
-3000z m2742 1550 l1588 0 0 -677 c-1 -528 -3 -682 -13 -695 -15 -19 -46 -26
-66 -14 -8 5 -16 3 -22 -5 -7 -12 -9 -11 -9 1 0 10 -11 15 -32 16 -18 1 -34 6
-36 12 -1 5 -11 8 -21 5 -10 -3 -22 0 -25 6 -4 6 -2 11 3 11 6 0 11 4 11 10 0
5 -6 7 -14 4 -8 -3 -17 0 -21 5 -3 6 -11 9 -16 6 -8 -6 -13 8 -10 27 0 4 -6 5
-15 1 -10 -4 -17 2 -21 16 -3 11 -10 21 -15 21 -6 0 -7 7 -4 17 4 10 -1 23
-14 35 -17 16 -22 28 -20 53 1 3 -7 19 -17 35 -10 18 -20 25 -24 18 -4 -6 -17
-11 -30 -12 -19 -1 -23 -7 -22 -24 2 -15 -3 -22 -15 -22 -11 0 -25 -14 -35
-35 -9 -19 -23 -35 -32 -35 -8 0 -15 -9 -15 -19 0 -24 -59 -120 -74 -122 -6
-1 7 -5 29 -9 33 -6 27 -7 -35 -8 -41 0 -69 2 -62 5 9 4 12 98 12 424 0 383
-1 420 -17 426 -15 6 -200 -2 -893 -38 -107 -5 -263 -13 -347 -17 -84 -5 -156
-11 -160 -15 -6 -6 -4 -606 2 -689 2 -16 3 -81 4 -146 l1 -118 208 -12 c258
-16 698 -55 706 -63 5 -5 -27 -95 -54 -154 -5 -11 -14 -33 -20 -48 l-10 -29
-73 7 c-95 9 -110 -4 -64 -57 23 -26 42 -38 67 -41 21 -2 8 -4 -30 -5 -79 -2
-110 5 -110 25 0 13 -8 14 -37 9 -142 -26 -311 -46 -383 -46 -75 0 -83 -2 -69
-15 13 -14 43 -14 250 -3 394 20 404 19 703 -56 142 -37 259 -66 261 -66 1 0
7 17 13 39 11 36 14 38 48 34 19 -2 50 0 67 5 21 6 41 5 57 -2 21 -8 105 -13
270 -14 295 -2 290 -1 290 -38 l0 -26 -99 4 c-55 2 -97 0 -95 -4 3 -5 12 -8
20 -8 8 0 14 -4 14 -10 0 -5 -2 -10 -4 -10 -13 0 -247 -51 -271 -59 -28 -10
-156 -35 -378 -76 -84 -15 -96 -15 -250 5 -440 57 -1072 153 -1109 168 -27 11
-6 32 38 38 76 10 86 14 80 30 -3 9 -1 12 4 9 6 -3 10 3 10 15 0 18 -4 21 -27
16 -16 -3 -48 -8 -73 -12 -45 -6 -45 -6 -27 14 23 25 19 54 -7 58 -10 1 -23 9
-27 16 -7 11 -11 11 -18 -1 -7 -11 -10 -9 -16 8 -3 11 -14 21 -24 21 -10 0
-25 9 -33 21 -7 12 -31 27 -53 35 -34 11 -42 11 -57 -2 -9 -9 -20 -29 -23 -44
-6 -25 -45 -74 -45 -55 0 4 -8 -3 -19 -16 -18 -23 -18 -24 6 -56 14 -18 34
-33 44 -33 29 0 89 -32 89 -48 0 -14 -38 -51 -54 -52 -16 0 -76 72 -116 140
-37 64 -73 158 -86 226 -7 38 -3 42 22 17 17 -17 17 -16 10 12 -14 51 -22 194
-20 320 3 135 -7 189 -38 206 -11 6 -17 14 -12 18 17 12 48 75 33 66 -11 -6
-12 -5 -1 6 16 18 16 79 -1 79 -7 0 -19 -6 -26 -12 -11 -11 -12 -10 -7 0 12
20 -3 65 -18 59 -9 -4 -12 0 -9 13 3 12 -3 22 -16 29 -19 10 -19 13 -5 46 21
51 18 53 -19 10 l-33 -38 4 68 c2 37 0 70 -5 74 -11 7 -35 72 -29 78 2 3 9 -5
16 -16 27 -52 51 -11 67 114 4 38 8 51 11 35 4 -20 8 -12 22 35 9 33 21 60 26
60 5 0 23 12 39 28 16 15 33 27 37 27 11 0 4 38 -10 52 -7 7 -12 19 -12 28 0
9 -11 22 -24 30 -13 7 -27 21 -29 31 -3 12 -14 19 -28 19 -27 0 -89 40 -89 57
0 7 -8 16 -17 21 -25 13 -137 24 -147 15 -4 -4 -23 -6 -42 -4 -32 2 -35 0 -32
-21 2 -16 -1 -22 -12 -20 -20 5 -90 -19 -85 -29 3 -4 -4 -10 -15 -14 -11 -3
-20 -11 -20 -16 0 -6 -4 -8 -10 -4 -5 3 -17 -7 -27 -22 -10 -15 -20 -30 -24
-33 -6 -5 -39 -98 -39 -112 0 -16 17 -7 28 15 8 17 9 10 6 -37 -2 -33 -7 -62
-10 -65 -4 -3 -4 13 -1 37 6 50 2 53 -16 10 -9 -21 -12 -57 -9 -101 3 -50 1
-67 -8 -65 -7 2 -15 -3 -17 -10 -4 -9 1 -10 22 -2 37 14 38 13 21 -12 -9 -12
-16 -27 -16 -33 0 -6 3 -6 8 1 4 6 17 14 28 18 16 5 23 2 27 -13 3 -11 2 -23
-1 -26 -3 -3 -7 -36 -7 -73 -1 -37 -4 -74 -9 -84 -6 -12 4 -24 44 -50 l51 -33
-40 -18 c-23 -10 -41 -22 -41 -28 0 -11 50 -1 64 12 6 5 19 9 30 9 16 -1 11
-7 -19 -25 -22 -14 -37 -25 -32 -26 26 -5 34 -4 55 3 24 8 29 -1 10 -20 -9 -9
-5 -10 19 -3 30 9 30 9 17 -18 -7 -14 -22 -36 -32 -47 -11 -12 -28 -36 -37
-55 -10 -19 -28 -48 -40 -65 -28 -36 -19 -68 11 -43 16 13 16 12 5 -8 -10 -19
-8 -26 9 -43 17 -17 23 -31 29 -70 3 -13 51 104 51 123 0 20 0 20 -22 1 -22
-19 -22 -19 -8 2 34 49 96 123 103 123 4 1 1 -13 -8 -29 -9 -17 -20 -52 -24
-78 -8 -42 -8 -45 5 -28 14 20 14 20 14 0 0 -10 -9 -30 -20 -44 -11 -14 -20
-32 -20 -40 -1 -20 -29 -69 -30 -50 0 9 -3 11 -10 4 -7 -7 -7 -21 1 -42 14
-42 6 -65 -11 -29 -7 15 -21 27 -31 27 -13 0 -17 5 -12 18 3 9 3 14 -2 10 -4
-4 -14 -3 -22 3 -10 9 -13 8 -13 -5 0 -9 -5 -16 -11 -16 -5 0 -7 -4 -4 -10 3
-5 1 -10 -4 -10 -6 0 -11 5 -11 10 0 6 -6 10 -14 10 -8 0 -16 4 -18 10 -3 10
-68 22 -68 12 0 -2 18 -25 41 -49 36 -39 40 -49 34 -76 -4 -18 -7 -38 -8 -44
0 -7 -9 -13 -19 -13 -17 0 -18 -2 -5 -21 11 -15 13 -29 7 -50 -10 -35 -10 -40
1 -60 5 -10 4 -20 -3 -27 -9 -9 -9 -12 0 -12 7 0 12 -4 12 -10 0 -5 -10 -10
-21 -10 -17 0 -19 -3 -10 -13 6 -8 8 -17 4 -20 -3 -4 13 -23 36 -43 23 -20 40
-39 37 -41 -6 -6 -83 34 -91 47 -11 18 -34 11 -32 -10 1 -11 5 -20 10 -20 4 0
5 -4 2 -10 -11 -19 -32 -10 -75 30 -24 22 -45 38 -47 36 -9 -9 17 -44 52 -70
19 -15 44 -45 55 -66 11 -21 33 -48 50 -60 16 -12 30 -26 30 -31 0 -6 -16 2
-36 17 -21 17 -34 22 -32 13 2 -8 -3 -13 -10 -11 -8 1 -11 -2 -7 -7 3 -6 60
-27 125 -47 66 -21 118 -39 116 -42 -3 -2 -87 21 -188 52 -319 96 -433 119
-530 105 -16 -2 -28 -8 -28 -12 0 -5 -4 -6 -9 -2 -5 3 -12 1 -16 -5 -4 -6 -10
-8 -15 -5 -4 3 -10 -4 -13 -15 -3 -13 -11 -18 -20 -14 -19 7 -23 -1 -31 -48
-3 -23 -2 -38 4 -38 6 0 10 -5 10 -11 0 -5 -4 -8 -8 -5 -5 3 -9 -2 -9 -10 0
-8 6 -13 13 -10 10 4 11 -1 3 -22 -7 -19 -7 -28 2 -31 8 -2 7 -6 -2 -12 -10
-6 -11 -11 -3 -16 12 -9 11 -103 -1 -123 -5 -8 -4 -11 3 -6 7 4 10 -4 10 -23
-1 -18 -5 -28 -11 -24 -6 3 -7 1 -3 -6 4 -6 12 -9 17 -6 5 4 9 3 9 -2 9 -132
11 -150 21 -168 14 -25 18 -46 8 -39 -8 4 -7 0 0 -15 9 -16 9 -21 -1 -22 -10
0 -10 -2 0 -6 14 -5 17 -33 3 -33 -4 0 -6 -12 -3 -26 3 -19 9 -24 24 -21 12 4
18 1 15 -6 -2 -7 -11 -11 -21 -9 -19 3 -22 -14 -3 -21 6 -3 -89 -6 -212 -6
l-224 -1 4 1415 4 1415 67 0 67 0 6 -32 c3 -18 8 -46 9 -63 2 -16 4 -30 5 -30
1 0 4 -34 7 -75 6 -92 13 -134 51 -297 5 -23 23 -32 23 -13 0 6 9 10 19 10 13
0 24 11 32 35 7 19 16 35 21 35 4 0 5 6 2 13 -2 7 3 22 13 32 13 14 18 38 19
83 1 34 7 69 14 77 7 9 14 25 17 38 3 19 31 178 32 185 1 1 9 2 19 2 17 0 19
-26 30 -457 12 -424 22 -684 27 -691 2 -2 14 330 20 538 3 94 17 420 20 455 2
17 3 58 4 93 1 48 4 62 16 62 13 0 15 -76 15 -625 0 -358 4 -625 9 -625 5 0
12 17 16 38 15 82 47 127 134 192 18 14 21 33 31 220 5 113 15 331 21 485 6
154 15 291 20 304 l10 24 136 -6 c75 -4 851 -7 1725 -7z m-1572 -375 c0 -14
-4 -25 -9 -25 -4 0 -6 11 -3 25 2 14 6 25 8 25 2 0 4 -11 4 -25z m5172 -45
c46 -13 50 -20 37 -59 -9 -24 -16 -31 -28 -26 -78 32 -131 23 -157 -27 -33
-63 -13 -195 31 -212 24 -9 85 -7 123 3 l32 10 0 -39 0 -39 -54 -11 c-144 -30
-238 46 -239 193 -1 80 15 125 57 166 50 48 119 62 198 41z m-772 -200 l0
-200 -45 0 -45 0 0 200 0 200 45 0 45 0 0 -200z m355 184 c45 -21 69 -73 61
-129 -11 -69 -75 -115 -163 -115 l-33 0 0 -70 0 -70 -40 0 -40 0 0 200 0 200
91 0 c62 0 102 -5 124 -16z m-2345 -550 l0 -385 -158 7 -159 7 -38 -98 -38
-98 -91 7 c-217 15 -532 39 -661 50 l-140 11 -6 50 c-3 28 -9 215 -13 417 l-7
366 63 6 c35 3 207 11 383 17 176 6 390 15 475 19 85 4 208 8 273 8 l117 2 0
-386z m-1963 354 c-3 -8 -6 -5 -6 6 -1 11 2 17 5 13 3 -3 4 -12 1 -19z m-57
-166 c0 -28 -3 -33 -10 -22 -13 20 -13 73 0 65 6 -3 10 -23 10 -43z m-56 -112
c5 -33 1 -51 -25 -101 -22 -44 -34 -58 -41 -51 -19 19 32 209 53 197 3 -3 9
-23 13 -45z m4182 -133 c18 -21 24 -40 24 -74 0 -71 -56 -113 -151 -113 l-29
0 0 -70 c0 -68 -1 -70 -25 -70 l-25 0 0 181 0 181 91 -4 c85 -3 92 -5 115 -31z
m-4125 -20 c-10 -9 -11 -8 -5 6 3 10 9 15 12 12 3 -3 0 -11 -7 -18z m-14 -39
c-3 -8 -6 -5 -6 6 -1 11 2 17 5 13 3 -3 4 -12 1 -19z m4503 -8 c0 -16 -7 -20
-30 -20 -19 0 -40 -9 -55 -25 -23 -22 -25 -32 -25 -120 0 -95 0 -95 -25 -95
l-25 0 0 135 c0 128 1 135 20 135 14 0 20 -7 20 -22 l0 -21 23 20 c41 38 97
45 97 13z m328 0 c35 -22 52 -54 52 -101 l0 -29 -90 0 c-88 0 -90 0 -90 -24 0
-40 32 -70 76 -70 22 -1 51 2 67 7 23 6 27 4 27 -12 0 -40 -112 -49 -168 -14
-73 45 -66 196 10 243 42 25 74 25 116 0z m412 5 c41 -21 60 -63 60 -132 0
-74 -25 -118 -75 -132 -36 -10 -85 -2 -109 18 -8 7 -10 -9 -8 -65 l4 -74 -26
0 -26 0 0 195 c0 188 1 195 20 195 11 0 20 -7 20 -15 0 -12 6 -11 33 5 38 24
68 25 107 5z m-5410 -28 c0 -1 -27 -32 -60 -67 -33 -36 -60 -59 -60 -51 0 8
24 38 53 68 47 46 67 61 67 50z m290 -53 c0 -2 -9 0 -20 6 -11 6 -20 13 -20
16 0 2 9 0 20 -6 11 -6 20 -13 20 -16z m-215 -34 c-16 -10 -37 -30 -47 -42
-10 -13 -18 -18 -18 -11 0 13 69 73 85 73 5 0 -3 -9 -20 -20z m2395 -177 c0
-12 -3 -14 -8 -7 -4 7 -18 14 -32 17 -21 4 -20 4 8 6 24 1 32 -3 32 -16z
m-2630 -83 c0 -5 -4 -10 -10 -10 -5 0 -10 5 -10 10 0 6 5 10 10 10 6 0 10 -4
10 -10z m195 -70 l-30 -31 41 7 c47 7 70 -10 32 -25 -13 -6 -17 -10 -8 -10 9
-1 16 -9 16 -18 1 -10 4 -26 8 -35 6 -13 0 -20 -26 -31 l-33 -14 40 1 c38 1
40 0 38 -29 -2 -25 8 -107 23 -200 7 -44 17 -121 16 -130 -4 -52 -3 -119 3
-143 8 -37 -2 -44 -40 -27 -20 9 -24 14 -12 14 15 1 16 4 6 22 -22 42 -90 306
-104 407 -19 131 -12 207 23 245 14 15 28 27 31 27 2 0 -8 -14 -24 -30z m2475
-133 l115 -12 0 -113 -1 -112 66 0 c62 0 205 -21 243 -35 9 -4 17 -12 17 -17
0 -6 -8 -7 -17 -3 -86 35 -121 39 -380 39 -143 1 -259 -2 -256 -6 2 -5 -5 -8
-16 -8 -20 0 -20 1 5 68 14 37 34 92 46 122 27 73 36 90 51 89 7 0 64 -6 127
-12z m-805 -267 c3 -5 1 -10 -4 -10 -6 0 -11 5 -11 10 0 6 2 10 4 10 3 0 8 -4
11 -10z m920 -10 c0 -22 -79 -32 -143 -19 -30 6 -51 13 -48 17 7 6 137 20 171
18 11 0 20 -8 20 -16z m-28 -36 c-3 -3 -12 -4 -19 -1 -8 3 -5 6 6 6 11 1 17
-2 13 -5z m2564 -77 c-13 -13 -26 -3 -16 12 3 6 11 8 17 5 6 -4 6 -10 -1 -17z
m609 -7 c0 -27 2 -29 30 -24 46 10 60 -9 60 -77 0 -33 -4 -59 -10 -59 -5 0
-10 25 -10 55 0 42 -4 57 -16 62 -31 12 -49 -11 -52 -66 -5 -89 -22 -56 -22
44 0 57 4 95 10 95 6 0 10 -13 10 -30z m300 -65 c0 -57 -4 -95 -10 -95 -6 0
-10 38 -10 95 0 57 4 95 10 95 6 0 10 -38 10 -95z m70 0 c0 -57 -4 -95 -10
-95 -6 0 -10 38 -10 95 0 57 4 95 10 95 6 0 10 -38 10 -95z m-2196 69 c36 -35
4 -94 -51 -94 -20 0 -23 -5 -23 -35 0 -24 -5 -35 -15 -35 -12 0 -15 17 -15 90
l0 90 44 0 c27 0 51 -6 60 -16z m1766 6 c0 -5 -18 -10 -39 -10 -45 0 -71 -26
-71 -70 0 -44 26 -70 71 -70 24 0 38 -4 34 -10 -8 -13 -71 -13 -95 0 -22 12
-41 70 -33 102 11 44 43 68 90 68 24 0 43 -4 43 -10z m-1690 -42 c0 -9 3 -9
12 0 15 15 48 16 48 2 0 -5 -9 -10 -20 -10 -25 0 -40 -29 -40 -79 0 -23 -4
-41 -10 -41 -6 0 -10 30 -10 70 0 40 4 70 10 70 6 0 10 -5 10 -12z m182 -5
c23 -20 24 -85 2 -107 -38 -39 -104 -7 -104 51 0 60 60 94 102 56z m173 7 c3
-5 0 -10 -8 -10 -10 0 -13 -7 -10 -20 7 -26 -13 -50 -43 -50 -41 0 -29 -28 14
-32 30 -2 38 -7 40 -26 2 -13 -2 -30 -8 -38 -13 -14 -65 -19 -94 -8 -17 7 -22
49 -7 58 12 8 20 55 10 62 -13 8 -11 48 3 62 14 14 94 16 103 2z m70 0 c7 12
35 14 35 2 0 -4 -10 -12 -22 -17 -19 -8 -24 -19 -26 -62 -5 -79 -22 -64 -22
18 0 60 2 70 14 60 10 -8 16 -9 21 -1z m153 -2 c7 -7 12 -37 12 -67 l0 -56
-41 -3 c-42 -3 -69 10 -69 34 0 22 30 44 61 44 24 0 30 4 27 18 -3 12 -13 17
-36 16 -32 -2 -43 10 -19 19 22 10 53 7 65 -5z m82 2 c0 -6 8 -5 19 2 14 8 26
9 42 2 16 -7 32 -7 50 0 43 16 59 -5 59 -75 0 -76 -18 -77 -22 -1 -3 53 -5 57
-28 57 -23 0 -25 -4 -28 -57 -2 -43 -7 -58 -17 -58 -11 0 -15 14 -15 55 0 40
-4 57 -15 61 -27 11 -45 -16 -45 -67 0 -27 -4 -49 -10 -49 -6 0 -10 30 -10 70
0 40 4 70 10 70 6 0 10 -5 10 -10z m240 0 c0 -6 8 -5 19 2 14 8 26 9 42 2 16
-7 32 -7 50 0 43 16 59 -5 59 -75 0 -76 -18 -77 -22 -1 -3 53 -5 57 -28 57
-23 0 -25 -4 -28 -57 -2 -43 -7 -58 -17 -58 -11 0 -15 14 -15 55 0 40 -4 57
-15 61 -27 11 -45 -16 -45 -67 0 -27 -4 -49 -10 -49 -6 0 -10 30 -10 70 0 40
4 70 10 70 6 0 10 -5 10 -10z m240 -60 c0 -40 -4 -70 -10 -70 -6 0 -10 30 -10
70 0 40 4 70 10 70 6 0 10 -30 10 -70z m70 58 c0 -9 3 -9 12 0 7 7 21 12 33
12 12 0 26 -5 33 -12 14 -14 16 -128 2 -128 -5 0 -10 25 -10 55 0 42 -4 57
-16 62 -31 12 -49 -11 -52 -66 -5 -76 -22 -62 -22 19 0 40 4 70 10 70 6 0 10
-5 10 -12z m250 2 c0 -5 -5 -10 -10 -10 -6 0 -10 -6 -9 -12 4 -36 -3 -48 -33
-56 -42 -11 -42 -26 -1 -30 17 -2 37 -9 43 -17 17 -20 3 -54 -24 -61 -63 -16
-115 17 -85 53 15 18 17 50 4 89 -10 32 19 54 71 54 24 0 44 -4 44 -10z m514
-6 c11 -10 16 -34 16 -68 l0 -53 -52 1 c-47 1 -53 3 -56 24 -5 32 15 52 50 52
23 0 29 4 26 18 -2 10 -13 18 -28 19 -43 2 -45 3 -30 13 23 15 57 12 74 -6z
m286 -4 c11 -11 20 -29 20 -40 0 -17 -7 -20 -46 -20 -38 0 -45 -3 -42 -17 2
-13 14 -19 41 -21 49 -4 48 -22 -2 -22 -46 0 -71 26 -71 72 0 33 31 68 60 68
11 0 29 -9 40 -20z m90 10 c46 30 80 -3 80 -76 0 -69 -18 -71 -22 -3 -3 55
-21 78 -52 66 -12 -5 -16 -20 -16 -62 0 -42 -3 -55 -15 -55 -12 0 -15 14 -15
63 0 62 7 87 20 68 3 -6 11 -6 20 -1z m235 0 c3 -5 0 -10 -8 -10 -10 0 -13 -7
-10 -20 7 -26 -13 -50 -43 -50 -41 0 -29 -28 14 -32 30 -2 38 -7 40 -26 2 -13
-2 -30 -8 -38 -13 -14 -65 -19 -94 -8 -17 7 -22 49 -7 58 12 8 20 55 10 62
-13 8 -11 48 3 62 14 14 94 16 103 2z m125 -10 c11 -11 20 -29 20 -40 0 -17
-7 -20 -46 -20 -38 0 -45 -3 -42 -17 2 -13 14 -19 41 -21 49 -4 48 -22 -2 -22
-46 0 -71 26 -71 72 0 33 31 68 60 68 11 0 29 -9 40 -20z m130 10 c17 -11 9
-13 -32 -10 -41 2 -36 -26 7 -44 26 -11 35 -21 35 -39 0 -14 -7 -28 -16 -31
-25 -9 -72 -7 -79 4 -4 6 10 10 34 10 50 0 55 22 11 40 -17 7 -35 21 -40 31
-19 35 41 64 80 39z m-3286 -32 c15 -24 -3 -52 -37 -56 -33 -4 -53 28 -37 59
14 25 58 23 74 -3z m-2935 -20 c0 -7 -9 -33 -19 -58 -17 -40 -20 -43 -26 -22
-4 13 -14 22 -25 22 -25 0 -24 12 4 37 34 31 67 41 66 21z m81 -25 c0 -33 -25
-24 -26 9 -1 18 3 25 13 21 7 -3 13 -16 13 -30z m-725 -3 c13 -5 14 -9 5 -9
-8 0 -24 4 -35 9 -13 5 -14 9 -5 9 8 0 24 -4 35 -9z m1014 -10 c36 -6 80 -13
97 -16 l31 -4 -26 -29 c-22 -24 -30 -27 -54 -20 -15 4 -35 5 -43 2 -9 -3 -28
7 -47 24 -18 17 -41 35 -52 41 -19 11 -19 11 4 12 13 0 54 -5 90 -10z m-939
-10 c13 -9 13 -10 0 -9 -8 0 -24 4 -35 9 l-20 9 20 0 c11 0 27 -4 35 -9z
m1793 -126 c34 -5 58 -26 45 -39 -4 -4 -77 6 -191 27 -122 23 9 33 146 12z
m-145 -29 c15 -5 17 -191 1 -200 -16 -11 -59 4 -59 20 0 7 -13 23 -30 35 -16
12 -30 25 -30 29 0 11 64 0 72 -13 13 -21 28 8 20 39 -6 20 -16 31 -33 35 -18
4 -25 13 -27 38 l-3 33 38 -6 c21 -4 44 -8 51 -10z m183 -31 c5 -3 9 -21 9
-39 0 -33 -1 -34 -30 -28 -34 6 -36 -1 -24 -91 5 -35 11 -46 23 -44 9 2 16 -3
15 -9 -1 -7 -2 -60 -2 -118 l-2 -105 -30 0 c-30 0 -30 0 -32 63 -1 42 -2 49
-5 22 -7 -87 -6 -85 -83 -85 -39 0 -70 1 -70 3 2 24 93 263 102 266 23 7 28
25 28 105 l0 79 46 -7 c25 -3 50 -8 55 -12z m2179 -45 c0 -5 -7 -9 -15 -9 -15
0 -20 12 -9 23 8 8 24 -1 24 -14z m-1506 -46 c-8 -32 -28 -122 -46 -200 l-33
-143 -32 0 c-30 0 -32 2 -23 23 5 12 19 60 30 107 11 47 25 96 29 110 5 14 14
50 21 80 14 63 25 80 50 80 17 0 17 -4 4 -57z m1456 47 c0 -5 -13 -10 -30 -10
l-30 0 0 -80 c0 -47 -4 -80 -10 -80 -6 0 -10 33 -10 80 l0 80 -30 0 c-16 0
-30 5 -30 10 0 6 30 10 70 10 40 0 70 -4 70 -10z m-1810 -30 c0 8 3 10 9 5 8
-9 21 -86 36 -212 6 -44 12 -55 40 -75 19 -12 40 -33 46 -46 9 -16 15 -19 21
-10 6 10 8 9 8 -4 0 -15 -15 -17 -147 -15 l-148 2 -6 39 c-3 21 -12 42 -20 47
-41 25 -49 36 -49 66 0 31 1 31 33 22 24 -7 35 -6 42 4 6 7 18 16 28 20 15 6
17 14 11 52 -5 35 -3 45 7 45 9 1 8 4 -3 11 -10 5 -18 16 -18 24 0 12 5 12 26
3 17 -8 24 -18 21 -30 -6 -20 17 -43 33 -33 5 3 10 27 10 53 0 34 3 43 10 32
8 -13 10 -13 10 0z m1860 -76 c0 -50 -3 -64 -15 -64 -12 0 -15 14 -15 63 0 35
3 67 6 70 16 15 24 -9 24 -69z m80 66 c43 27 80 -3 80 -64 0 -52 -18 -70 -60
-64 -28 4 -30 3 -30 -29 0 -23 -5 -33 -15 -33 -12 0 -15 17 -15 93 0 89 6 119
20 98 3 -6 11 -6 20 -1z m200 0 c17 -11 9 -13 -32 -10 -41 2 -36 -26 7 -44 26
-11 35 -21 35 -39 0 -14 -7 -28 -16 -31 -25 -9 -72 -7 -79 4 -4 6 10 10 34 10
50 0 55 22 11 40 -17 7 -35 21 -40 31 -19 35 41 64 80 39z m-726 -16 c21 -21
20 -37 -5 -60 -22 -19 -43 -13 -63 19 -8 12 -5 21 8 36 23 25 39 26 60 5z
m-744 -75 c0 -5 -4 -9 -10 -9 -5 0 -10 7 -10 16 0 8 5 12 10 9 6 -3 10 -10 10
-16z m-1897 -16 c-7 -2 -21 -2 -30 0 -10 3 -4 5 12 5 17 0 24 -2 18 -5z m1921
-46 c3 4 6 -1 6 -9 0 -9 -3 -18 -7 -21 -5 -2 -3 -2 4 -1 16 4 24 -20 30 -98 5
-57 3 -68 -10 -68 -17 0 -42 88 -34 120 3 11 1 18 -4 15 -10 -7 -23 40 -16 59
3 7 2 18 -1 22 -4 5 0 2 9 -8 9 -9 19 -14 23 -11z m1626 -134 c0 -29 3 -34 12
-25 19 19 55 14 72 -10 21 -30 22 -118 1 -118 -10 0 -15 15 -17 57 -2 48 -6
58 -22 61 -28 6 -46 -25 -46 -75 0 -24 -4 -43 -10 -43 -6 0 -10 38 -10 95 0
57 4 95 10 95 6 0 10 -17 10 -37z m-565 -43 c15 -38 28 -70 29 -70 2 0 15 32
30 70 21 53 32 70 47 70 17 0 19 -8 19 -90 0 -72 -3 -90 -15 -90 -11 0 -15 16
-17 68 l-3 67 -25 -67 c-14 -38 -30 -68 -36 -68 -6 0 -23 30 -37 68 l-25 67
-1 -67 c-1 -53 -4 -68 -16 -68 -12 0 -15 17 -15 90 0 82 2 90 19 90 15 0 26
-17 46 -70z m873 29 c3 -30 -3 -42 -39 -77 l-41 -42 46 0 c25 0 46 -4 46 -10
0 -6 -27 -10 -60 -10 -33 0 -60 3 -60 6 0 4 21 29 46 56 58 62 58 94 2 92 -21
-1 -38 2 -38 6 0 15 16 21 55 18 38 -3 40 -5 43 -39z m152 20 c9 -16 8 -26 -4
-44 -13 -20 -13 -25 -1 -35 18 -15 19 -52 3 -68 -20 -20 -86 -15 -98 7 -14 28
-13 38 9 60 17 17 18 21 5 32 -17 14 -18 41 -2 57 20 20 76 15 88 -9z m278 9
c17 -17 15 -38 -5 -60 -9 -10 -11 -18 -5 -18 6 0 16 -9 22 -21 9 -16 8 -26 -5
-45 -12 -19 -24 -24 -60 -24 -57 0 -59 18 -2 22 37 3 42 6 42 28 0 19 -6 26
-25 28 -39 6 -45 19 -12 27 31 6 47 28 36 47 -4 6 -24 8 -45 5 -37 -5 -48 1
-32 16 11 12 78 8 91 -5z m226 -10 c9 -12 16 -43 16 -68 0 -58 -22 -90 -60
-90 -38 0 -60 32 -60 90 0 58 22 90 60 90 18 0 34 -8 44 -22z m146 7 c19 -23
23 -105 8 -135 -19 -35 -70 -40 -92 -8 -18 26 -22 109 -6 139 13 24 72 26 90
4z m235 -9 c28 -43 -2 -86 -61 -86 -21 0 -24 -5 -24 -35 0 -19 -4 -35 -10 -35
-6 0 -10 37 -10 90 l0 90 45 0 c36 0 48 -5 60 -24z m113 -49 c14 -37 28 -64
32 -60 4 4 17 36 30 71 17 46 27 62 41 62 17 0 19 -9 19 -90 0 -75 -3 -90 -16
-90 -13 0 -15 11 -12 70 2 38 0 66 -3 62 -4 -4 -17 -35 -29 -69 -13 -35 -28
-63 -34 -63 -6 0 -22 30 -36 68 l-25 67 -3 -67 c-4 -101 -22 -83 -22 23 0 79
2 90 17 87 10 -2 26 -29 41 -71z m352 14 c0 -38 5 -61 13 -65 10 -5 10 -7 0
-12 -7 -3 -13 -14 -13 -25 0 -10 -7 -19 -15 -19 -8 0 -15 9 -15 20 0 17 -7 20
-40 20 -25 0 -40 5 -40 13 0 20 80 127 96 127 10 0 14 -15 14 -59z m218 47
c17 -17 15 -43 -4 -59 -14 -11 -14 -13 0 -21 19 -11 21 -59 4 -76 -14 -14 -94
-16 -103 -3 -3 6 16 11 42 13 44 3 48 5 48 28 0 21 -5 26 -32 28 -41 4 -43 18
-3 27 24 5 30 12 30 32 0 23 -3 25 -40 21 -38 -3 -48 1 -33 15 11 12 78 8 91
-5z m160 -35 c12 -36 12 -50 0 -85 -14 -45 -30 -55 -73 -44 -42 11 -54 98 -23
159 7 14 19 17 46 15 34 -3 38 -7 50 -45z m146 31 c36 -35 4 -94 -51 -94 -20
0 -23 -5 -23 -35 0 -24 -5 -35 -15 -35 -12 0 -15 17 -15 90 l0 90 44 0 c27 0
51 -6 60 -16z m107 -21 c7 -21 19 -54 27 -73 l14 -35 28 70 c16 41 34 71 44
73 14 3 16 -9 16 -87 0 -54 -4 -91 -10 -91 -6 0 -10 31 -11 73 l0 72 -28 -70
c-16 -38 -33 -71 -39 -73 -5 -1 -23 30 -38 70 l-29 73 -3 -72 c-4 -105 -22
-91 -22 17 0 82 2 90 19 90 14 0 23 -11 32 -37z m-4191 -30 c0 -18 -6 -23 -25
-23 -29 0 -32 16 -9 49 13 18 18 20 25 10 5 -8 9 -24 9 -36z m1438 15 c7 -7
12 -37 12 -67 l0 -56 -41 -3 c-42 -3 -69 10 -69 34 0 22 30 44 61 44 24 0 30
4 27 18 -3 12 -13 17 -36 16 -32 -2 -43 10 -19 19 22 10 53 7 65 -5z m82 0 c0
-9 3 -9 12 0 15 15 48 16 48 2 0 -5 -9 -10 -20 -10 -25 0 -40 -29 -40 -79 0
-23 -4 -41 -10 -41 -6 0 -10 30 -10 70 0 40 4 70 10 70 6 0 10 -5 10 -12z
m168 -2 c-2 -6 -14 -10 -28 -10 -18 -1 -27 -9 -34 -29 -14 -37 2 -61 43 -65
37 -4 32 -22 -6 -22 -59 0 -86 77 -42 121 20 20 73 24 67 5z m882 -1 c0 -8 -7
-15 -15 -15 -16 0 -20 12 -8 23 11 12 23 8 23 -8z m1070 0 c0 -8 -7 -15 -15
-15 -8 0 -15 7 -15 15 0 8 7 15 15 15 8 0 15 -7 15 -15z m-2796 -14 c36 -40
-15 -91 -55 -55 -23 21 -24 32 -2 56 21 23 36 23 57 -1z m2586 -41 c0 -5 -16
-10 -36 -10 -21 0 -33 4 -29 10 3 6 19 10 36 10 16 0 29 -4 29 -10z m-1151
-70 c-10 -27 -29 -42 -29 -22 1 24 14 52 26 52 10 0 11 -6 3 -30z m291 15 c0
-8 -7 -15 -15 -15 -16 0 -20 12 -8 23 11 12 23 8 23 -8z m1070 0 c0 -8 -7 -15
-15 -15 -8 0 -15 7 -15 15 0 8 7 15 15 15 8 0 15 -7 15 -15z m-2170 -210 c0
-8 -4 -15 -10 -15 -5 0 -10 7 -10 15 0 8 5 15 10 15 6 0 10 -7 10 -15z m70
-80 c0 -57 -4 -95 -10 -95 -6 0 -10 38 -10 95 0 57 4 95 10 95 6 0 10 -38 10
-95z m160 2 l0 -94 -50 -2 c-56 -2 -70 13 -70 70 0 55 55 90 88 57 9 -9 12 -4
12 25 0 20 5 37 10 37 6 0 10 -38 10 -93z m67 67 c-9 -9 -28 6 -21 18 4 6 10
6 17 -1 6 -6 8 -13 4 -17z m-541 8 c19 -13 23 -39 8 -60 -12 -17 -12 -21 1
-26 20 -7 19 -50 -1 -70 -10 -10 -33 -16 -65 -16 l-49 0 0 90 0 90 48 0 c26 0
52 -4 58 -8z m1074 2 c0 -20 -77 -174 -87 -174 -13 0 0 37 38 112 11 21 19 40
19 43 0 3 -20 5 -45 5 -25 0 -45 5 -45 10 0 6 27 10 60 10 33 0 60 -3 60 -6z
m190 -84 c0 -53 -4 -90 -10 -90 -6 0 -10 32 -10 75 0 69 -9 91 -25 65 -4 -6
-11 -8 -16 -4 -5 3 1 14 13 24 42 35 48 27 48 -70z m178 49 c3 -30 -3 -42 -39
-77 l-41 -42 46 0 c25 0 46 -4 46 -10 0 -6 -27 -10 -60 -10 -33 0 -60 3 -60 6
0 4 21 29 46 56 58 62 58 94 2 92 -21 -1 -38 2 -38 6 0 15 16 21 55 18 38 -3
40 -5 43 -39z m150 0 c3 -30 -3 -42 -39 -77 l-41 -42 46 0 c25 0 46 -4 46 -10
0 -6 -27 -10 -60 -10 -33 0 -60 3 -60 6 0 4 21 29 46 56 58 62 58 94 2 92 -21
-1 -38 2 -38 6 0 15 16 21 55 18 38 -3 40 -5 43 -39z m-1506 -56 c3 -52 5 -58
27 -61 31 -5 41 12 41 71 0 26 5 47 10 47 6 0 10 -30 10 -69 l0 -69 -52 2 -53
1 -3 68 c-2 40 1 67 7 67 6 0 11 -26 13 -57z m158 -13 c0 -40 -4 -70 -10 -70
-6 0 -10 30 -10 70 0 40 4 70 10 70 6 0 10 -30 10 -70z m300 0 c0 -40 -4 -70
-10 -70 -6 0 -10 30 -10 70 0 40 4 70 10 70 6 0 10 -30 10 -70z m80 60 c46 30
80 -3 80 -76 0 -69 -18 -71 -22 -3 -3 55 -21 78 -52 66 -12 -5 -16 -20 -16
-62 0 -42 -3 -55 -15 -55 -12 0 -15 14 -15 63 0 62 7 87 20 68 3 -6 11 -6 20
-1z m235 0 c3 -5 0 -10 -8 -10 -10 0 -13 -7 -10 -20 7 -26 -13 -50 -43 -50
-41 0 -29 -28 14 -32 30 -2 38 -7 40 -26 2 -13 -2 -30 -8 -38 -13 -14 -65 -19
-94 -8 -17 7 -22 49 -7 58 12 8 20 55 10 62 -13 8 -11 48 3 62 14 14 94 16
103 2z m-1233 -26 c11 -23 10 -29 -11 -45 -21 -17 -26 -18 -45 -6 -27 18 -31
40 -11 61 24 24 54 20 67 -10z m1538 -34 c0 -5 -16 -10 -36 -10 -21 0 -33 4
-29 10 3 6 19 10 36 10 16 0 29 -4 29 -10z"/>
<path d="M1315 4350 c3 -5 8 -10 11 -10 2 0 4 5 4 10 0 6 -5 10 -11 10 -5 0
-7 -4 -4 -10z"/>
<path d="M1086 3804 c-9 -24 -7 -28 9 -14 17 14 20 30 6 30 -5 0 -12 -7 -15
-16z"/>
<path d="M1106 3722 c-9 -15 -3 -61 9 -65 6 -3 10 10 10 29 0 35 -9 52 -19 36z"/>
<path d="M1027 3586 c-7 -18 1 -26 29 -26 33 0 37 15 8 29 -31 14 -31 14 -37
-3z"/>
<path d="M1020 3527 c0 -8 6 -14 14 -14 8 0 12 6 9 14 -3 7 -9 13 -14 13 -5 0
-9 -6 -9 -13z"/>
<path d="M1080 3530 c-9 -6 -10 -10 -3 -10 6 0 15 5 18 10 8 12 4 12 -15 0z"/>
<path d="M1120 3181 c0 -6 7 -11 15 -11 8 0 14 -3 14 -7 -3 -20 2 -24 16 -13
18 15 20 -1 3 -18 -9 -9 -9 -12 3 -13 7 0 24 -2 37 -3 27 -3 29 14 2 21 -11 3
-20 11 -20 18 0 7 -8 15 -17 18 -10 2 -26 8 -35 12 -11 4 -18 3 -18 -4z"/>
<path d="M1140 3112 c0 -17 21 -25 31 -13 5 6 6 9 3 6 -4 -3 -13 0 -21 6 -9 8
-13 8 -13 1z"/>
<path d="M2270 2963 c0 -5 8 -29 17 -55 11 -32 23 -48 34 -48 9 0 30 -3 47 -6
l31 -6 -29 55 c-19 34 -39 57 -53 61 -30 8 -47 7 -47 -1z"/>
<path d="M641 2863 c-1 -69 1 -81 14 -77 18 7 19 43 0 109 l-14 50 0 -82z"/>
<path d="M729 2794 c6 -12 8 -24 5 -27 -7 -7 16 -43 87 -137 70 -93 103 -125
151 -144 39 -17 71 -21 53 -8 -6 4 -19 20 -29 37 -37 57 -167 191 -195 200
-11 3 -22 14 -25 23 -3 9 -17 31 -32 47 -16 19 -21 23 -15 9z"/>
<path d="M2159 2786 c-2 -2 -17 -6 -34 -9 -67 -11 -85 -19 -85 -39 0 -16 5
-18 36 -12 73 14 119 32 122 48 2 10 -3 16 -16 16 -10 0 -21 -2 -23 -4z"/>
<path d="M2930 2781 c0 -28 77 -42 110 -21 13 8 13 9 0 14 -27 8 -110 14 -110
7z"/>
<path d="M1780 2710 c0 -21 3 -22 51 -18 47 5 87 23 57 26 -7 1 -34 4 -60 8
-45 6 -48 4 -48 -16z"/>
<path d="M1832 2670 c-36 -8 -49 -17 -39 -26 10 -11 85 7 91 22 6 15 -2 16
-52 4z"/>
<path d="M3040 2530 c0 -5 4 -10 8 -10 5 0 9 -6 10 -12 3 -32 10 -50 23 -59 8
-5 86 -8 174 -8 185 0 184 2 -45 60 -173 43 -170 43 -170 29z"/>
<path d="M407 2476 c-7 -44 6 -84 16 -47 3 12 0 21 -6 21 -8 0 -9 3 -1 8 6 4
8 18 4 32 -6 22 -7 21 -13 -14z"/>
<path d="M2679 2420 c52 -45 120 -55 351 -54 118 1 288 5 378 9 143 6 161 9
145 21 -10 8 -13 14 -8 13 21 -3 35 1 35 11 0 13 -73 8 -82 -5 -5 -6 -8 -5 -8
3 0 6 -9 12 -20 12 -11 0 -20 -6 -20 -12 0 -9 -3 -10 -8 -2 -5 8 -39 9 -117 3
-147 -10 -529 -14 -544 -4 -7 4 -22 8 -34 9 -12 2 -38 6 -57 10 l-35 7 24 -21z"/>
<path d="M430 2225 c-7 -9 -8 -15 -2 -15 5 0 12 7 16 15 3 8 4 15 2 15 -2 0
-9 -7 -16 -15z"/>
<path d="M5790 4006 c0 -30 4 -58 10 -61 16 -10 87 14 94 31 19 50 -7 84 -65
84 l-39 0 0 -54z"/>
<path d="M5530 3436 l0 -76 34 0 c74 0 116 39 102 94 -8 31 -27 42 -88 51
l-48 7 0 -76z"/>
<path d="M6270 3400 c-11 -11 -20 -29 -20 -40 0 -18 7 -20 65 -20 62 0 65 1
65 23 0 52 -71 76 -110 37z"/>
<path d="M6680 3400 c-16 -16 -20 -33 -20 -81 0 -33 5 -69 10 -79 13 -23 71
-36 98 -21 47 25 54 149 12 183 -29 24 -75 23 -100 -2z"/>
<path d="M5250 2434 c0 -32 2 -35 26 -32 56 6 53 68 -2 68 -21 0 -24 -5 -24
-36z"/>
<path d="M5510 2411 c-24 -45 -2 -86 42 -79 18 2 24 10 26 36 2 18 -2 40 -9
48 -16 20 -46 17 -59 -5z"/>
<path d="M5667 2424 c-4 -4 -7 -16 -7 -26 0 -15 6 -19 28 -16 19 2 27 9 27 23
0 20 -33 33 -48 19z"/>
<path d="M5657 2303 c-4 -3 -7 -13 -7 -20 0 -22 74 -13 78 10 3 13 -4 17 -31
17 -18 0 -37 -3 -40 -7z"/>
<path d="M5938 2372 c-38 -4 -40 -42 -3 -42 24 0 41 19 33 37 -1 4 -15 7 -30
5z"/>
<path d="M6767 2416 c-8 -20 19 -47 39 -39 8 3 14 15 12 27 -4 25 -43 34 -51
12z"/>
<path d="M6755 2300 c-12 -19 10 -32 46 -28 48 4 46 32 -3 36 -20 2 -39 -2
-43 -8z"/>
<path d="M7330 2370 c-35 -8 -40 -40 -5 -40 24 0 41 19 33 38 -1 4 -14 6 -28
2z"/>
<path d="M7597 2424 c-17 -17 -5 -34 24 -34 24 0 30 4 27 18 -3 17 -38 29 -51
16z"/>
<path d="M7897 2424 c-4 -4 -7 -16 -7 -26 0 -15 6 -19 28 -16 19 2 27 9 27 23
0 20 -33 33 -48 19z"/>
<path d="M7887 2303 c-4 -3 -7 -13 -7 -20 0 -22 74 -13 78 10 3 13 -4 17 -31
17 -18 0 -37 -3 -40 -7z"/>
<path d="M8047 2424 c-17 -17 -5 -34 24 -34 24 0 30 4 27 18 -3 17 -38 29 -51
16z"/>
<path d="M3208 1930 c-7 -24 -3 -38 8 -28 3 4 4 17 2 30 l-3 23 -7 -25z"/>
<path d="M3201 1864 c0 -11 3 -14 6 -6 3 7 2 16 -1 19 -3 4 -6 -2 -5 -13z"/>
<path d="M3596 1985 c4 -8 8 -15 10 -15 2 0 4 7 4 15 0 8 -4 15 -10 15 -5 0
-7 -7 -4 -15z"/>
<path d="M5534 2046 c-3 -8 -4 -29 -2 -48 2 -26 8 -34 27 -36 13 -2 28 2 32
10 13 19 11 62 -3 76 -16 16 -47 15 -54 -2z"/>
<path d="M6310 1785 c-18 -21 -5 -47 22 -43 26 3 37 36 16 49 -18 12 -24 11
-38 -6z"/>
<path d="M6302 1693 c-14 -27 -3 -43 29 -43 33 0 48 22 29 45 -17 20 -47 19
-58 -2z"/>
<path d="M6811 1771 c-27 -49 -4 -127 35 -119 25 4 42 67 28 106 -12 34 -48
42 -63 13z"/>
<path d="M6956 1775 c-11 -31 -6 -102 9 -115 38 -32 70 21 56 93 -5 25 -12 33
-33 35 -16 2 -28 -3 -32 -13z"/>
<path d="M7180 1756 c0 -31 3 -36 23 -36 33 0 49 15 45 41 -2 19 -10 25 -35
27 -32 3 -33 2 -33 -32z"/>
<path d="M7670 1736 l-31 -46 29 0 c28 0 30 3 34 43 3 23 4 43 2 45 -1 2 -16
-17 -34 -42z"/>
<path d="M8026 1774 c-3 -9 -6 -33 -6 -54 0 -53 8 -70 35 -70 27 0 35 17 35
70 0 21 -3 45 -6 54 -8 21 -50 21 -58 0z"/>
<path d="M8180 1754 c0 -32 2 -35 26 -32 56 6 53 68 -2 68 -21 0 -24 -5 -24
-36z"/>
<path d="M5568 1692 c-38 -4 -40 -42 -3 -42 24 0 41 19 33 37 -1 4 -15 7 -30
5z"/>
<path d="M5779 1356 c-7 -14 -9 -36 -5 -50 5 -21 13 -26 36 -26 23 0 31 5 36
26 9 34 -10 74 -36 74 -12 0 -25 -10 -31 -24z"/>
<path d="M5320 1391 c0 -32 7 -36 48 -25 37 10 26 48 -15 52 -31 3 -33 1 -33
-27z"/>
<path d="M5320 1310 c0 -26 3 -30 29 -30 33 0 54 20 45 44 -4 10 -18 16 -40
16 -31 0 -34 -3 -34 -30z"/>
<path d="M6167 1374 c-4 -4 -7 -16 -7 -26 0 -15 6 -19 28 -16 19 2 27 9 27 23
0 20 -33 33 -48 19z"/>
<path d="M6157 1253 c-4 -3 -7 -13 -7 -20 0 -22 74 -13 78 10 3 13 -4 17 -31
17 -18 0 -37 -3 -40 -7z"/>
</g>
</svg>
